 <svg
      width="12"
      height="12"
      viewBox="0 0 12 12"
      fill="none"
      xmlns="http://www.w3.org/2000/svg"
    >
      <path
        d="M0.699488 11.3106C0.76413 11.3753 0.839545 11.4256 0.925734 11.4615C1.01192 11.4974 1.10889 11.5153 1.21662 11.5153L6.91046 11.4561C7.10798 11.4525 7.27318 11.3843 7.40605 11.2514C7.5497 11.1077 7.61973 10.9479 7.61613 10.772C7.61973 10.596 7.55149 10.438 7.41144 10.2979C7.3432 10.2297 7.26958 10.1812 7.19058 10.1525C7.11516 10.1202 7.03436 10.104 6.94817 10.104L4.46486 10.1417L2.58487 10.2764L3.88847 9.08051L9.07596 3.89302L10.2718 2.58942L10.1372 4.46941L10.0994 6.95272C10.0994 7.03891 10.1138 7.12151 10.1425 7.20052C10.1749 7.27593 10.2251 7.34776 10.2934 7.41599C10.4334 7.55604 10.5896 7.62607 10.762 7.62607C10.9416 7.62607 11.1032 7.55425 11.2468 7.4106C11.3797 7.27773 11.4479 7.11253 11.4515 6.91502L11.5108 1.22117C11.5108 1.11344 11.4928 1.01647 11.4569 0.930285C11.421 0.844097 11.3707 0.768681 11.3061 0.70404C11.2379 0.635807 11.1606 0.583735 11.0745 0.547823C10.9883 0.511911 10.8931 0.49575 10.789 0.499342L5.09511 0.558597C4.89401 0.558596 4.72702 0.625034 4.59414 0.757908C4.45049 0.901556 4.37688 1.06136 4.37328 1.23733C4.37688 1.4133 4.4487 1.57131 4.58876 1.71137C4.65699 1.7796 4.72881 1.82988 4.80423 1.8622C4.88323 1.89093 4.96583 1.9053 5.05202 1.9053L7.54072 1.87297L9.41533 1.73292L8.11711 2.93417L2.92962 8.12166L1.72837 9.41988L1.86842 7.54527L1.90074 5.05657C1.90074 4.97038 1.88458 4.88958 1.85226 4.81417C1.82353 4.73516 1.77505 4.66154 1.70682 4.59331C1.56676 4.45325 1.40695 4.38322 1.2274 4.38322C1.05502 4.38322 0.897005 4.45505 0.753357 4.59869C0.620482 4.73157 0.554045 4.89856 0.554045 5.09967L0.49479 10.7935C0.491199 10.8977 0.50736 10.9928 0.543271 11.079C0.579183 11.1652 0.631256 11.2424 0.699488 11.3106Z"
        fill="#40196D"
      />
    </svg>