<svg id="bc2df004-dd95-4868-adb5-9dc9dbc021e7" data-name="Layer 1"  width="865.76" height="582.89" viewBox="0 0 865.76 682.89"><defs><clipPath id="b4e3fcca-33ad-411d-9d19-d4be304246c7"><ellipse id="a28f9606-21bb-4ef1-a073-90d4917849b1" data-name="SVGID" cx="433.03" cy="267.66" rx="293.14" ry="222.35" fill="#060809"/></clipPath><clipPath id="e6d1291e-25b4-42fb-8768-65872d58f3b5"><ellipse id="e206323c-d112-437f-b9f0-7f5d7d16efc0" data-name="SVGID" cx="433.03" cy="267.66" rx="293.14" ry="222.35" fill="#fff" opacity="0.7" clip-path="url(#b4e3fcca-33ad-411d-9d19-d4be304246c7)"/></clipPath></defs><ellipse cx="487.85" cy="634.21" rx="267.13" ry="21.83" fill="#060809"/><ellipse cx="487.85" cy="634.21" rx="267.13" ry="21.83" fill="#b2d4fb"/><ellipse id="bcf61021-ba7f-4577-a2c7-2ccdf850c206" data-name="SVGID" cx="433.03" cy="267.66" rx="293.14" ry="222.35" fill="#060809"/><ellipse id="bf72a4ea-14ac-4eda-a5bc-74c59f257439" data-name="SVGID" cx="433.03" cy="267.66" rx="293.14" ry="222.35" fill="#fff" opacity="0.7"/><g clip-path="url(#e6d1291e-25b4-42fb-8768-65872d58f3b5)"><rect x="384.16" y="23.87" width="347.62" height="258.36" fill="#060809"/><rect x="401.35" y="23.87" width="330.43" height="245.53" fill="#fff" opacity="0.55"/><polygon points="395.81 23.87 395.81 272.8 401.35 269.4 401.35 23.87 395.81 23.87" opacity="0.2"/><polygon points="731.78 272.8 395.81 272.8 401.35 269.4 731.78 269.4 731.78 272.8" fill="#fff" opacity="0.2"/><polygon points="401.35 153.05 706.46 23.87 731.78 23.87 731.78 142.05 447.09 269.4 401.35 269.4 401.35 153.05" fill="#fff" opacity="0.32"/><path d="M726,282.23q-.29,5.82-1,11.44c-10,84.48-81.21,132.11-81.21,132.11-25.22-99.58,47.83-132.45,47.83-132.45V269.41H656.72c-117.84-65.1-97.3-200.16-97.3-200.16s83.4,23,133.8,97.54a192.81,192.81,0,0,1,32.94,107.16C726.17,276.71,726.12,279.49,726,282.23Z" fill="#060809"/><path d="M726,282.23q-.29,5.82-1,11.44c-10,84.48-81.21,132.11-81.21,132.11-25.22-99.58,47.83-132.45,47.83-132.45V269.41H656.72c-117.84-65.1-97.3-200.16-97.3-200.16s83.4,23,133.8,97.54a192.81,192.81,0,0,1,32.94,107.16C726.17,276.71,726.12,279.49,726,282.23Z" opacity="0.2"/><path d="M726,282.23q-.29,5.82-1,11.44H691.65V282.23Z" fill="#fff" opacity="0.5"/><path d="M667.89,343.25s23.89-36.26,26.82-42.92C694.71,300.33,703,318.37,667.89,343.25Z" fill="#fff"/><path d="M681.72,243.38s19.75,24.17,27.1,38.85C708.82,282.23,711.17,258.13,681.72,243.38Z" fill="#fff"/></g><polygon points="323.7 607.53 323.7 490.01 318.34 490.01 318.34 607.53 280.16 607.53 280.16 626.62 284.64 626.62 284.64 611.85 318.34 611.85 318.34 626.62 323.7 626.62 323.7 611.85 357.01 611.85 357.01 626.62 362.49 626.62 362.49 607.53 323.7 607.53" fill="#bcbec0"/><path d="M276.12,480.9H359.5a0,0,0,0,1,0,0v12.33a0,0,0,0,1,0,0H276.12a1.39,1.39,0,0,1-1.39-1.39v-9.56A1.39,1.39,0,0,1,276.12,480.9Z" fill="#d1d3d4"/><path d="M263.4,453H381.8a0,0,0,0,1,0,0v29.52a0,0,0,0,1,0,0H263.4a4.4,4.4,0,0,1-4.4-4.4V457.35A4.4,4.4,0,0,1,263.4,453Z" fill="#bcbec0"/><path d="M402.17,588.76l37.76-2.9a8.55,8.55,0,0,0,7.72-10.27l-24-115.35s0-.74-.19-2.05a56.9,56.9,0,0,0-42.39-48.41L347,401s-12.24-3-19.35-7.09c0,0-.43,1.94-7.1,4.5l76.18,75-7.25,57L393,580.83A8.55,8.55,0,0,0,402.17,588.76Z" fill="#2c2b45"/><path d="M402.17,588.76l37.76-2.9a8.55,8.55,0,0,0,7.72-10.27l-24-115.35s0-.74-.19-2.05a56.9,56.9,0,0,0-42.39-48.41L347,401s-12.24-3-19.35-7.09c0,0-.43,1.94-7.1,4.5l76.18,75-7.25,57L393,580.83A8.55,8.55,0,0,0,402.17,588.76Z" opacity="0.2"/><path d="M278.37,390.52l-6,24.34s-8.57,27.35,15.57,40.22c0,0,7.91,5.47,28.08,5.15h48.55L320.12,567.38a6.15,6.15,0,0,0,3.42,8.08L362.91,591A6.15,6.15,0,0,0,371,587.2l36-110.89s13.37-25.38-2.31-46.28a39,39,0,0,0-19.43-13.53L347,404.24s-19.4-3.83-20.73-9C326.25,395.24,311.94,411.55,278.37,390.52Z" fill="#2c2b45"/><path d="M301.32,270.19a1.25,1.25,0,0,0,.5,1.39l17.93,12.36s5.05,4.29,6.31-1.26l8.49-20.05a27.7,27.7,0,0,1-8.06-9.33l-21.38,3.88Z" fill="#f9b499"/><path d="M334.55,262.63l-3.29,7.78s-8.95-10-7.27-18.78l5.6,1.67Z" fill="#f7a48b"/><path d="M363,234.21c-.07,0-.13,0-.2,0,.05-.88.08-1.78.08-2.68,0-18.47-9.27-33.45-20.7-33.45s-20.7,15-20.7,33.45S330.78,265,342.22,265c8.34,0,15.53-8,18.8-19.47a3.21,3.21,0,0,0,2,.79c2.3,0,4.17-2.71,4.17-6.06S365.34,234.21,363,234.21Z" fill="#f9b499"/><path d="M349.79,204.17s.25,28.53-17.42,47c0,0-5.62,20.39-29.7,21.05,0,0,20.86-6.85,26.92-18.87a64,64,0,0,0-28,16.11s-24-.36-28.25,24.13c0,0-3.76,18.55,3.21,36.47,0,0-50.13-13.27-25.56-49.29,0,0-12.45,10.62-14.27,24.9,0,0-4.32-20.42,20.91-35,0,0,29.05-12.44,33.69-41.33,0,0-1-52.36,51.79-33.44,0,0,18.15-7.22,24.14,12.2,0,0-3.35-5-6.34-5a15.79,15.79,0,0,1,3.73,14.19s-1.19-9.89-8.81-10.92c0,0,2.09,7.31-2,12.42C353.77,218.73,357.13,209,349.79,204.17Z" fill="#2c2b45"/><path d="M276.7,388.69a1,1,0,0,0,.43,1.28l10.22,5.91a40.55,40.55,0,0,0,21.55,5.59c6.45-.22,14.57-1.53,19-7.43l3.69-43.61s20.91-10.95,13.94-34.36c0,0-9.12-25.7-19.5-33.39,0,0-.29,5.42-6.31,1.26l-17.87-12.31a1.37,1.37,0,0,1-.54-1.51l.21-.71s-28.19-1.69-29.19,32.95c0,0,2,17.94,5.23,37.61C277.59,340,283.61,371.78,276.7,388.69Z" fill="#060809"/><polygon points="486.19 350.88 489.3 355.41 501.58 332.34 505.23 334.05 491.45 360.39 505.89 382.8 500.58 382.8 488.8 364.21 478.76 382.8 474.52 382.8 486.81 360.89 483.82 355.17 486.19 350.88" fill="#060809"/><polygon points="518.68 338.99 518.68 350.57 608.97 350.57 608.97 382.8 621.74 382.8 621.74 338.99 518.68 338.99" fill="#a7a9ac"/><rect x="518.68" y="350.57" width="90.29" height="6.99" fill="#d1d3d4"/><rect x="545.15" y="334.03" width="51.05" height="4.96" fill="#2c2b45"/><path d="M280.65,308.37s.63,35.12,35.36,57.8l-32.2-53.58Z" opacity="0.2"/><path d="M364.56,460.24h15.07S371.69,468,364.56,460.24Z" opacity="0.2"/><polygon points="391.89 565.18 389.46 530.35 406.98 476.31 391.89 565.18" opacity="0.2"/><path d="M329.24,577.72s-2.63,13.19-5.17,15.71c0,0-9.27,12.91,5.17,20.06L362,628.6a6.49,6.49,0,0,0,3.85.55,4.13,4.13,0,0,0,3.65-4.35,7.69,7.69,0,0,0-2.69-5.91l-17.4-15.4,4.25-16.11Z" fill="#f9b499"/><polygon points="329.24 577.72 327.42 585.31 345.34 584.08 329.24 577.72" fill="#f7a48b"/><path d="M410.55,588.12a172.82,172.82,0,0,1,3.33,20.81s1.23,14.61,14.82,13.58l35.91-4.19a5.82,5.82,0,0,0,2.58-.93c1.41-1,3.21-2.78,2.33-5.54a5.77,5.77,0,0,0-4.48-3.78l-22.64-4.33a2.36,2.36,0,0,1-1.8-1.57l-5.33-15.95Z" fill="#f9b499"/><polygon points="410.55 588.12 412.51 598.28 427.05 586.85 410.55 588.12" fill="#f7a48b"/><rect x="487.85" y="401.39" width="138.38" height="241.44" fill="#bcbec0"/><rect x="503.41" y="407.54" width="108.81" height="60.17" fill="#d1d3d4"/><rect x="503.41" y="407.54" width="108.81" height="5.6" opacity="0.2"/><rect x="503.41" y="413.15" width="6.29" height="54.57" fill="#fff" opacity="0.2"/><rect x="502.63" y="473.31" width="108.81" height="77.09" fill="#d1d3d4"/><rect x="502.63" y="473.31" width="108.81" height="5.6" opacity="0.2"/><rect x="502.63" y="478.92" width="6.29" height="71.48" fill="#fff" opacity="0.2"/><rect x="502.63" y="557.12" width="108.81" height="77.09" fill="#d1d3d4"/><rect x="502.63" y="557.12" width="108.81" height="5.6" opacity="0.2"/><rect x="502.63" y="562.73" width="6.29" height="71.48" fill="#fff" opacity="0.2"/><rect x="502.63" y="638.92" width="109.59" height="3.92" opacity="0.2"/><path d="M588.22,92.08s-4.57,37.4,8.76,62.84C597,154.92,591.39,101.27,588.22,92.08Z" fill="#fff"/><path d="M351,358.9l-10.84,3s2.84-7.14,8.15-6.57Z" fill="#f7a48b"/><rect x="478.76" y="395.24" width="162.59" height="12.3" fill="#d1d3d4"/><path d="M412.16,323.52l43.49,48L463,375.9l-3.77-6.41L416,320.1a2.57,2.57,0,0,0-3.8-.08h0A2.56,2.56,0,0,0,412.16,323.52Z" fill="#2c2b45"/><rect x="359.5" y="382.8" width="287.81" height="12.45" fill="#bcbec0"/><path d="M351,358.9c-2.34.35-37.6-71-37.6-71s-11.2-21.91-29.63-6.47c0,0-16.18,12.2,0,31.12l37.71,62.74s13.58,25.14,42.71,13.94l67.22-20.42s22.91,5.23,20.92-14.44c0,0-3.49-14.44-17.68-10.2,0,0-8.71-9.71-10,1.49l.5,6.22S373.94,355.41,351,358.9Z" fill="#f9b499"/><polygon points="492.45 321.38 457.6 382.8 468.55 382.8 499.92 326.03 492.45 321.38" fill="#fff"/><polygon points="547.99 264.54 567.37 273.28 567.37 334.03 572.81 334.03 572.81 268.56 550.12 258.87 587.46 158.17 573.28 152.74 513.72 316.06 527.66 321.38 547.99 264.54" fill="#2c2b45"/><polygon points="547.99 264.54 567.37 273.28 567.37 334.03 572.81 334.03 572.81 268.56 550.12 258.87 587.46 158.17 573.28 152.74 513.72 316.06 527.66 321.38 547.99 264.54" opacity="0.2"/><polygon points="522.04 319.24 513.72 316.06 573.28 152.74 581.32 155.82 522.04 319.24" fill="#2c2b45"/><path d="M357.27,73.93V177.62a5.76,5.76,0,0,1-5.75,5.77H212.37a5.78,5.78,0,0,1-5.77-5.77V73.93a5.77,5.77,0,0,1,5.77-5.76H351.52A5.75,5.75,0,0,1,357.27,73.93Z" fill="#fff"/><path d="M357.27,73.93V90H206.6v-16a5.77,5.77,0,0,1,5.77-5.76H351.52A5.75,5.75,0,0,1,357.27,73.93Z" fill="#060809"/><rect x="214.82" y="101.34" width="18.76" height="18.76" fill="#060809" opacity="0.15"/><g opacity="0.15"><path d="M233.58,126.36H214.82a.58.58,0,1,1,0-1.16h18.76a.58.58,0,1,1,0,1.16Z" fill="#060809"/></g><g opacity="0.15"><path d="M233.58,134.57H214.82a.58.58,0,1,1,0-1.16h18.76a.58.58,0,1,1,0,1.16Z" fill="#060809"/></g><g opacity="0.15"><path d="M233.58,142.78H214.82a.58.58,0,0,1,0-1.16h18.76a.58.58,0,1,1,0,1.16Z" fill="#060809"/></g><path d="M357.27,90v87.64a5.76,5.76,0,0,1-5.75,5.77H244.14V90Z" fill="#060809" opacity="0.15"/><rect x="251.6" y="103.65" width="32.12" height="8.87" rx="1.07" fill="#060809" opacity="0.15"/><rect x="291.52" y="101.34" width="52.52" height="26.97" fill="#fff"/><rect x="256.39" y="120.1" width="20.41" height="2.88" fill="#060809" opacity="0.15"/><rect x="253.01" y="133.99" width="91.03" height="4.79" fill="#fff"/><rect x="253.01" y="144.99" width="90.32" height="4.44" fill="#fff"/><rect x="253.01" y="156.52" width="90.32" height="4.44" fill="#fff"/><rect x="253.01" y="168.06" width="90.32" height="4.44" fill="#fff"/><rect x="110.79" y="221.97" width="117.56" height="94.86" rx="3.01" fill="#fff"/><rect x="119.23" y="298.21" width="101.26" height="2.33" fill="#060809" opacity="0.15"/><rect x="202.74" y="292.68" width="4.36" height="13.39" fill="#fff"/><rect x="140.47" y="230.41" width="80.02" height="55.87" rx="1.5" fill="#060809" opacity="0.15"/><rect x="119.23" y="233.32" width="15.71" height="9.6" fill="#060809" opacity="0.15"/><rect x="119.23" y="251.65" width="15.71" height="9.6" fill="#060809" opacity="0.15"/><rect x="119.23" y="269.98" width="15.71" height="9.6" fill="#060809" opacity="0.15"/><circle cx="180.48" cy="258.34" r="19.93" fill="#fff"/><polygon points="177.43 251.65 177.43 265.91 190.52 258.78 177.43 251.65" fill="#060809" opacity="0.15"/><polygon points="177.82 356.67 177.82 401.11 236.4 401.11 236.4 356.67 211.48 372.15 202.51 372.15 177.82 356.67" fill="#fff"/><polygon points="177.82 356.67 236.4 356.67 211.48 372.15 202.51 372.15 177.82 356.67" fill="#fff"/><polygon points="177.82 356.67 236.4 356.67 211.48 372.15 202.51 372.15 177.82 356.67" fill="#060809" opacity="0.15"/><polygon points="188.82 339.61 188.82 363.57 202.51 372.15 211.48 372.15 226.39 362.89 226.39 339.61 188.82 339.61" fill="#fff"/><g opacity="0.15"><path d="M222.93,345.36H192.86a.59.59,0,1,1,0-1.17h30.07a.59.59,0,0,1,0,1.17Z" fill="#060809"/></g><g opacity="0.15"><path d="M222.93,352.54H192.86a.58.58,0,1,1,0-1.16h30.07a.58.58,0,0,1,0,1.16Z" fill="#060809"/></g><g opacity="0.15"><path d="M222.93,359.72H192.86a.58.58,0,1,1,0-1.16h30.07a.58.58,0,0,1,0,1.16Z" fill="#060809"/></g><g opacity="0.15"><path d="M222.93,366.9H192.86a.58.58,0,1,1,0-1.16h30.07a.58.58,0,0,1,0,1.16Z" fill="#060809"/></g></svg>