<svg
    width="101"
    height="102"
    viewBox="0 0 101 102"
    fill="none"
    xmlns="http://www.w3.org/2000/svg"
  >
    <path
      d="M0 56.8282C3.03967 81.9258 24.3174 101.287 50.1546 101.287C78.048 101.287 100.667 78.6094 100.667 50.6434C100.667 22.6775 78.048 0 50.1546 0C24.3174 0 3.03967 19.4507 0 44.4587"
      fill="#48D38A"
    />
    <path
      d="M19.3125 90.7969C27.8057 97.4299 38.534 101.374 50.1562 101.374C62.3149 101.374 73.4008 97.0713 82.1622 89.9006C72.775 86.3152 61.9573 83.5366 51.8549 82.4609C40.9478 83.6262 29.1467 86.7634 19.3125 90.7969Z"
      fill="#FFC83E"
    />
    <path
      d="M62.4911 35.4033C59.8985 29.0393 55.6072 23.0338 49.349 19.807C48.008 19.0899 46.3988 18.5521 45.2365 19.538C44.2531 20.3448 44.2531 21.9582 44.7895 23.0338C45.4153 24.1094 46.4882 24.9161 47.561 25.6332C43.9849 23.9301 39.6936 23.6612 35.8493 24.9161C34.9553 25.185 33.8825 25.8125 33.8825 26.7984C33.8825 27.6051 34.5977 28.1429 35.2235 28.5911C36.6539 29.5771 38.3526 30.2942 40.0512 30.7423C36.8327 31.1905 33.7037 32.3558 30.9322 34.0588C29.8594 34.7759 28.7865 35.5826 28.1607 36.7479C27.5349 37.9131 27.4455 39.4369 28.3395 40.4229C29.3229 41.5881 31.2004 41.5881 32.8096 41.4088C39.1572 40.6918 42.5545 38.182 49.0808 32.8936C50.6007 31.6387 55.2496 36.2997 57.2164 35.9411C58.1998 35.7619 61.5077 35.3137 62.4911 35.4033Z"
      fill="#5F36A8"
    />
    <path
      d="M52.9233 69.8214H49.8836C43.8043 69.8214 38.9766 64.8916 38.9766 58.8861V39.4354C38.9766 33.3403 43.8937 28.5 49.8836 28.5H52.9233C59.0026 28.5 63.8304 33.4299 63.8304 39.4354V58.7964C63.8304 64.8916 58.9132 69.8214 52.9233 69.8214Z"
      fill="#9C7ACD"
    />
    <path
      d="M44.7011 64.8984L41.9297 83.632C41.9297 88.8308 46.1316 93.1333 51.4063 93.1333C56.681 93.1333 60.883 88.9204 60.883 83.632L58.1115 64.8984H44.7011Z"
      fill="#9C7ACD"
    />
    <path
      d="M37.3699 54.7668H36.4758C34.6878 54.7668 33.168 53.3326 33.168 51.4503V46.879C33.168 45.0863 34.5984 43.5625 36.4758 43.5625H37.3699C39.1579 43.5625 40.6777 44.9967 40.6777 46.879V51.4503C40.6777 53.3326 39.1579 54.7668 37.3699 54.7668Z"
      fill="#9C7ACD"
    />
    <path
      d="M66.155 54.7668H65.261C63.473 54.7668 61.9531 53.3326 61.9531 51.4503V46.879C61.9531 45.0863 63.3836 43.5625 65.261 43.5625H66.155C67.9431 43.5625 69.4629 44.9967 69.4629 46.879V51.4503C69.4629 53.3326 68.0325 54.7668 66.155 54.7668Z"
      fill="#9C7ACD"
    />
    <path
      d="M46.043 53.5078C46.043 56.4657 48.4568 58.8859 51.4071 58.8859C54.3574 58.8859 56.7712 56.4657 56.7712 53.5078H46.043Z"
      fill="white"
    />
    <path
      d="M51.3151 49.9247C51.2257 49.9247 51.0469 49.8351 51.0469 49.6558V39.7064C51.0469 39.6168 51.1363 39.4375 51.3151 39.4375C51.4939 39.4375 51.5833 39.5271 51.5833 39.7064V49.6558C51.5833 49.7455 51.4939 49.9247 51.3151 49.9247Z"
      fill="#40196D"
    />
    <path
      d="M45.776 44.3663C45.6866 44.3663 45.5078 44.2766 45.5078 44.0974V42.5736C45.5078 42.484 45.5972 42.3047 45.776 42.3047C45.8654 42.3047 46.0442 42.3943 46.0442 42.5736V44.0974C46.0442 44.2766 45.9548 44.3663 45.776 44.3663Z"
      fill="#40196D"
    />
    <path
      d="M56.9518 44.3663C56.8624 44.3663 56.6836 44.2766 56.6836 44.0974V42.5736C56.6836 42.484 56.773 42.3047 56.9518 42.3047C57.0412 42.3047 57.22 42.3943 57.22 42.5736V44.0974C57.1306 44.2766 57.0412 44.3663 56.9518 44.3663Z"
      fill="#40196D"
    />
    <path
      d="M63.8312 32.6237H54.444C54.3546 32.6237 54.1758 32.5341 54.1758 32.3548C54.1758 32.2652 54.2652 32.0859 54.444 32.0859H63.8312C63.9206 32.0859 64.0994 32.1756 64.0994 32.3548C64.0994 32.5341 63.9206 32.6237 63.8312 32.6237Z"
      fill="#5F36A8"
    />
    <path
      d="M63.8313 35.1316H56.0534C55.9639 35.1316 55.7852 35.0419 55.7852 34.8627C55.7852 34.6834 55.8745 34.5938 56.0534 34.5938H63.8313C63.9207 34.5938 64.0995 34.6834 64.0995 34.8627C64.0995 35.0419 63.9207 35.1316 63.8313 35.1316Z"
      fill="#5F36A8"
    />
    <path
      d="M63.8347 37.6394H59.901C59.8116 37.6394 59.6328 37.5497 59.6328 37.3705C59.6328 37.1912 59.7222 37.1016 59.901 37.1016H63.8347C63.9241 37.1016 64.1029 37.1912 64.1029 37.3705C64.1029 37.5497 63.9241 37.6394 63.8347 37.6394Z"
      fill="#5F36A8"
    />
    <path
      d="M63.8347 40.155H59.901C59.8116 40.155 59.6328 40.0654 59.6328 39.8861C59.6328 39.7068 59.7222 39.6172 59.901 39.6172H63.8347C63.9241 39.6172 64.1029 39.7068 64.1029 39.8861C64.1029 40.0654 63.9241 40.155 63.8347 40.155Z"
      fill="#5F36A8"
    />
    <path
      d="M63.8336 42.5769H62.0456C61.9562 42.5769 61.7773 42.4872 61.7773 42.308C61.7773 42.2183 61.8667 42.0391 62.0456 42.0391H63.8336C63.923 42.0391 64.1018 42.1287 64.1018 42.308C64.1018 42.4872 63.923 42.5769 63.8336 42.5769Z"
      fill="#5F36A8"
    />
    <path
      d="M51.3176 69.8268C48.7249 69.8268 46.4004 69.0201 44.4336 67.7652C46.7581 70.4542 50.0659 72.0677 53.9102 72.0677C55.6983 72.0677 57.3969 71.7091 58.9168 70.992L58.3804 67.5859C56.4135 69.0201 53.9996 69.8268 51.3176 69.8268Z"
      fill="#40196D"
    />
    <path
      d="M32.7188 41.4106C39.0663 40.6935 42.4636 38.1837 48.9899 32.8953C48.5429 33.3435 48.0065 33.8813 47.7383 34.4191C47.4701 34.9569 47.3807 35.674 47.6489 36.1221C47.9171 36.6599 48.6323 36.9288 49.2581 36.9288C49.884 36.9288 50.5098 36.6599 51.0462 36.391C54.2647 34.9569 57.0361 32.6264 59.0924 29.7581L52.4766 26.5312L43.0894 28.2343L37.7253 36.3014L32.7188 41.4106Z"
      fill="#5F36A8"
    />
    <path d="M94 7L6 96" stroke="#F7685B" stroke-width="4" />
  </svg>